<svg width="32" height="106" viewBox="0 0 32 106" fill="none" xmlns="http://www.w3.org/2000/svg">
<path d="M30.9066 3.19503C31.5666 2.69434 31.6957 1.75341 31.195 1.09341C30.6943 0.433415 29.7534 0.304275 29.0934 0.804969L30.9066 3.19503ZM20.0838 104.998C20.911 104.951 21.5437 104.243 21.4971 103.416L20.7377 89.937C20.6911 89.1099 19.9829 88.4771 19.1557 88.5238C18.3286 88.5703 17.6959 89.2786 17.7425 90.1057L18.4175 102.087L6.43647 102.762C5.60936 102.808 4.97662 103.517 5.02322 104.344C5.06982 105.171 5.7781 105.804 6.60522 105.757L20.0838 104.998ZM29.0934 0.804969C14.232 12.0793 4.05954 31.1366 1.3886 50.7476C-1.28454 70.3747 3.53308 90.8014 19.0002 104.619L20.9988 102.381C6.46586 89.3986 1.78394 70.0753 4.36115 51.1524C6.94056 32.2134 16.7684 13.9207 30.9066 3.19503L29.0934 0.804969Z" fill="white"/>
</svg>
