<svg width="16" height="16" viewBox="0 0 16 16" fill="none" xmlns="http://www.w3.org/2000/svg">
<ellipse cx="7.99978" cy="11.5918" rx="4.2449" ry="4.40816" fill="url(#paint0_linear_50_25)"/>
<path d="M5.69564 15.6529C5.84873 15.7343 6.01023 15.5581 5.9165 15.4122C5.40772 14.6203 4.92594 13.2879 5.69354 11.5719C6.97359 8.71024 7.7525 7.22812 7.7525 7.22812C7.7525 7.22812 8.1668 8.95774 9.28987 10.4956C10.3708 11.9757 10.9624 13.8372 10.0086 15.3879C9.91909 15.5335 10.0769 15.7052 10.229 15.6274C11.4097 15.0234 12.7339 13.812 12.8833 11.4012C12.9384 10.6646 12.8557 9.63324 12.4426 8.3318C11.9114 6.68234 11.2584 5.91267 10.8806 5.58215C10.7676 5.48327 10.5918 5.5709 10.6011 5.72078C10.7112 7.50054 10.0416 7.95218 9.66052 6.93435C9.50832 6.52781 9.41956 5.82465 9.41956 4.96834C9.41956 3.54274 9.00595 2.07522 8.09409 0.882702C7.85697 0.572587 7.57951 0.282806 7.26117 0.0356917C7.14592 -0.0537908 6.97887 0.0361526 6.98942 0.181671C7.05944 1.1481 6.996 3.91783 4.56607 7.22679C2.36283 10.2962 3.21658 12.6535 3.51953 13.292C4.09873 14.5151 4.90663 15.2334 5.69564 15.6529Z" fill="white"/>
<defs>
<linearGradient id="paint0_linear_50_25" x1="4.19976" y1="15.9999" x2="12.764" y2="15.8157" gradientUnits="userSpaceOnUse">
<stop stop-color="#FFB200"/>
<stop offset="1" stop-color="#FF7D00"/>
</linearGradient>
</defs>
</svg>
