<svg width="31" height="49" viewBox="0 0 31 49" fill="none" xmlns="http://www.w3.org/2000/svg">
<ellipse cx="15" cy="35.5" rx="13" ry="13.5" fill="url(#paint0_linear_507_415)"/>
<path d="M7.94435 47.9371C8.41321 48.1863 8.9078 47.6466 8.62074 47.1998C7.06262 44.7748 5.58716 40.6941 7.93792 35.4388C11.8581 26.6751 14.2435 22.1361 14.2435 22.1361C14.2435 22.1361 15.5123 27.4331 18.9517 32.1428C22.2619 36.6756 24.0737 42.3764 21.1528 47.1255C20.8787 47.5713 21.362 48.0972 21.8278 47.8588C25.4435 46.0092 29.4989 42.2992 29.9565 34.9162C30.1252 32.6602 29.8722 29.5018 28.607 25.5161C26.9803 20.4647 24.9804 18.1076 23.8233 17.0953C23.4772 16.7925 22.9389 17.0609 22.9673 17.5199C23.3045 22.9704 21.254 24.3535 20.0868 21.2364C19.6207 19.9914 19.3489 17.838 19.3489 15.2156C19.3489 10.8497 18.0822 6.35537 15.2896 2.70328C14.5634 1.75355 13.7137 0.866093 12.7388 0.109306C12.3859 -0.164734 11.8742 0.110717 11.9066 0.556366C12.121 3.51606 11.9267 11.9984 4.48504 22.132C-2.26235 31.5322 0.352244 38.7514 1.28001 40.7067C3.05382 44.4525 5.52803 46.6523 7.94435 47.9371Z" fill="white"/>
<defs>
<linearGradient id="paint0_linear_507_415" x1="3.36245" y1="49" x2="29.5904" y2="48.4359" gradientUnits="userSpaceOnUse">
<stop stop-color="#FFB200"/>
<stop offset="1" stop-color="#FF7D00"/>
</linearGradient>
</defs>
</svg>
