<svg width="17" height="15" viewBox="0 0 17 15" fill="none" xmlns="http://www.w3.org/2000/svg">
<path d="M13.3483 5.76923H12.077C12.0765 5.31033 11.8754 4.87035 11.5178 4.54586C11.1603 4.22136 10.6755 4.03886 10.1699 4.0384V2.88452C11.0126 2.88544 11.8204 3.18966 12.4163 3.73044C13.0121 4.27123 13.3473 5.00444 13.3483 5.76923Z" fill="url(#paint0_linear_760_40)"/>
<path d="M15.891 5.76913H14.6197C14.6183 4.69841 14.1491 3.67189 13.3149 2.91477C12.4807 2.15765 11.3497 1.73176 10.1699 1.73054V0.57666C11.6867 0.578187 13.141 1.12574 14.2135 2.09919C15.2861 3.07263 15.8894 4.39247 15.891 5.76913Z" fill="url(#paint1_linear_760_40)"/>
<path d="M11.0176 10.663L12.4416 9.37069C12.6322 9.19766 12.8745 9.07919 13.1386 9.02997C13.4026 8.98074 13.6768 9.00292 13.9271 9.09376L15.6613 9.72378C15.9169 9.81659 16.136 9.97679 16.2903 10.1837C16.4446 10.3906 16.5271 10.6347 16.5271 10.8846V13.7468C16.5275 13.9169 16.4897 14.0853 16.416 14.2417C16.3422 14.3981 16.2341 14.5392 16.0981 14.6563C15.9622 14.7735 15.8014 14.8642 15.6255 14.923C15.4496 14.9818 15.2623 15.0074 15.0752 14.9982C2.91971 14.3116 0.464709 4.96747 0.00892632 1.38928C-0.0131485 1.21435 0.00583232 1.03716 0.0646207 0.869362C0.123409 0.701566 0.220673 0.546968 0.350014 0.415736C0.479355 0.284503 0.637843 0.17961 0.815054 0.107957C0.992264 0.0363034 1.18418 -0.000487188 1.37818 4.87137e-06H4.47585C4.75114 -3.1516e-06 5.02013 0.0748524 5.2481 0.214915C5.47607 0.354978 5.65257 0.553823 5.75484 0.785799L6.44837 2.3597C6.54845 2.58688 6.57289 2.83573 6.51865 3.07539C6.46441 3.31506 6.33388 3.53502 6.14324 3.70801L4.71932 5.00036C4.71932 5.00036 5.50883 10.0382 11.0176 10.663Z" fill="url(#paint2_linear_760_40)"/>
<defs>
<linearGradient id="paint0_linear_760_40" x1="10.3365" y1="5.76923" x2="13.5423" y2="5.69033" gradientUnits="userSpaceOnUse">
<stop stop-color="#FFB200"/>
<stop offset="1" stop-color="#FF7D00"/>
</linearGradient>
<linearGradient id="paint1_linear_760_40" x1="10.4697" y1="5.76914" x2="16.2402" y2="5.62712" gradientUnits="userSpaceOnUse">
<stop stop-color="#FFB200"/>
<stop offset="1" stop-color="#FF7D00"/>
</linearGradient>
<linearGradient id="paint2_linear_760_40" x1="0.866048" y1="15" x2="17.5357" y2="14.5898" gradientUnits="userSpaceOnUse">
<stop stop-color="#FFB200"/>
<stop offset="1" stop-color="#FF7D00"/>
</linearGradient>
</defs>
</svg>
