<svg width="19" height="19" viewBox="0 0 19 19" fill="none" xmlns="http://www.w3.org/2000/svg">
<path fill-rule="evenodd" clip-rule="evenodd" d="M9.49442 18.3456H9.49073C7.99794 18.3451 6.53113 17.9705 5.22834 17.2599L0.5 18.5002L1.76538 13.8783C0.984833 12.5256 0.574112 10.9912 0.574781 9.41915C0.576738 4.5013 4.57801 0.500244 9.49434 0.500244C11.8804 0.501274 14.1199 1.43016 15.8039 3.11613C17.4879 4.80201 18.4148 7.04295 18.4138 9.42618C18.4119 14.3429 14.4122 18.3436 9.49442 18.3456ZM5.44774 15.6452L5.71845 15.8059C6.85668 16.4814 8.16144 16.8388 9.49174 16.8393H9.49474C13.5808 16.8393 16.9065 13.5135 16.9081 9.42574C16.9089 7.44482 16.1385 5.58224 14.7389 4.18093C13.3392 2.77962 11.4778 2.00752 9.49766 2.00684C5.4084 2.00684 2.08268 5.33226 2.08106 9.41973C2.08048 10.8205 2.47242 12.1848 3.21453 13.3651L3.3908 13.6456L2.64187 16.3813L5.44774 15.6452ZM13.9877 11.5476C13.932 11.4547 13.7835 11.3989 13.5606 11.2873C13.3377 11.1758 12.242 10.6367 12.0377 10.5622C11.8334 10.4879 11.6848 10.4507 11.5362 10.6738C11.3877 10.8969 10.9606 11.3989 10.8306 11.5476C10.7006 11.6963 10.5705 11.715 10.3478 11.6034C10.1249 11.4919 9.40678 11.2566 8.5555 10.4972C7.89295 9.90626 7.44567 9.17647 7.31567 8.95335C7.18566 8.73022 7.30181 8.60965 7.41338 8.49852C7.51365 8.39863 7.63626 8.23815 7.74769 8.10805C7.85911 7.97795 7.89626 7.88492 7.97055 7.73629C8.04483 7.58748 8.0077 7.45738 7.95197 7.34582C7.89626 7.23426 7.45055 6.13726 7.26483 5.69101C7.08391 5.25643 6.90018 5.3153 6.76339 5.30843C6.63354 5.30191 6.4848 5.30054 6.33624 5.30054C6.18768 5.30054 5.94621 5.35632 5.74193 5.57944C5.53765 5.80257 4.96191 6.34176 4.96191 7.43867C4.96191 8.53568 5.7605 9.59543 5.87194 9.74415C5.98336 9.89296 7.44346 12.144 9.67916 13.1094C10.2109 13.339 10.626 13.4761 10.9497 13.5788C11.4836 13.7485 11.9695 13.7246 12.3534 13.6671C12.7816 13.6032 13.672 13.128 13.8578 12.6075C14.0434 12.0868 14.0434 11.6406 13.9877 11.5476Z" fill="white"/>
</svg>
