<svg width="300" height="300" xmlns="http://www.w3.org/2000/svg">

 <g>
  <title>background</title>
  <rect fill="none" id="canvas_background" height="302" width="302" y="-1" x="-1"/>
 </g>
 <g>
  <title>Layer 1</title>
  <ellipse ry="23.33332" rx="23.33332" id="svg_18" cy="244.140572" cx="61.944477" stroke-opacity="null" stroke-width="0" stroke="#000" fill="#00e676"/>
  <ellipse stroke="#000" ry="118.333266" rx="118.333266" id="svg_16" cy="148.029515" cx="153.055536" stroke-width="0" fill="#00e676"/>
  <g stroke="null" fill="#ffffff" id="XMLID_468_">
   <path stroke="null" d="m220.282591,171.93145c-0.569697,-0.273455 -21.889657,-10.77202 -25.678142,-12.135495c-1.546727,-0.555455 -3.203596,-1.097616 -4.965859,-1.097616c-2.878869,0 -5.297232,1.434687 -7.18103,4.252788c-2.129717,3.165616 -8.576788,10.701758 -10.568828,12.95301c-0.260162,0.297192 -0.615273,0.652303 -0.82796,0.652303c-0.190848,0 -3.490343,-1.358727 -4.489212,-1.792646c-22.870485,-9.934566 -40.230102,-33.824809 -42.610486,-37.853516c-0.339919,-0.579192 -0.354162,-0.842202 -0.35701,-0.842202c0.083556,-0.306687 0.852646,-1.077677 1.249535,-1.475515c1.161232,-1.148889 2.419313,-2.663333 3.636566,-4.128404c0.576343,-0.694081 1.153636,-1.389111 1.720485,-2.044263c1.766061,-2.054707 2.552242,-3.649859 3.463758,-5.497576l0.477596,-0.959939c2.225616,-4.421798 0.324727,-8.153313 -0.289596,-9.358222c-0.504182,-1.008364 -9.506344,-22.734707 -10.463435,-25.017293c-2.301576,-5.50802 -5.342808,-8.072606 -9.56901,-8.072606c-0.392141,0 0,0 -1.644525,0.069313c-2.002485,0.084505 -12.907435,1.520141 -17.72897,4.559475c-5.11303,3.223535 -13.76293,13.49897 -13.76293,31.569758c0,16.263899 10.32101,31.620081 14.752303,37.460425c0.110141,0.147172 0.312384,0.446263 0.605778,0.875434c16.970324,24.783718 38.126021,43.150748 59.572264,51.718041c20.646768,8.247313 30.423718,9.200606 35.982061,9.200606c0.000949,0 0.000949,0 0.000949,0c2.335758,0 4.205313,-0.183253 5.854586,-0.345616l1.046343,-0.099697c7.132606,-0.632364 22.806869,-8.754344 26.372223,-18.662324c2.808606,-7.803899 3.549212,-16.330364 1.680606,-19.424768c-1.279919,-2.104081 -3.485596,-3.162768 -6.278061,-4.503455z" id="XMLID_469_"/>
   <path stroke="null" d="m152.707034,3.888881c-79.203072,0 -143.639599,63.952284 -143.639599,142.560023c0,25.424627 6.804081,50.311839 19.693475,72.093254l-24.670728,72.774042c-0.459556,1.356828 -0.117737,2.85703 0.885879,3.878687c0.724465,0.739657 1.707192,1.138444 2.710808,1.138444c0.384545,0 0.771939,-0.057919 1.149838,-0.178505l75.883638,-24.113374c20.765455,11.094849 44.235072,16.951334 67.987638,16.951334c79.195476,0.000949 143.625356,-63.944688 143.625356,-142.543881c0,-78.607739 -64.42988,-142.560023 -143.626306,-142.560023zm0,255.408449c-22.350162,0 -43.997698,-6.453717 -62.6059,-18.664223c-0.625717,-0.411131 -1.352081,-0.621919 -2.083192,-0.621919c-0.386444,0 -0.773838,0.058869 -1.150788,0.178505l-38.013031,12.083273l12.271273,-36.203294c0.396889,-1.171677 0.198444,-2.463939 -0.532667,-3.462808c-14.170263,-19.362101 -21.660829,-42.238284 -21.660829,-66.157961c0,-62.232749 51.039152,-112.863618 113.774184,-112.863618c62.727436,0 113.760891,50.63087 113.760891,112.863618c0.000949,62.225153 -51.031557,112.848426 -113.759942,112.848426z" id="XMLID_470_"/>
  </g>
  <g id="svg_1"/>
  <g id="svg_2"/>
  <g id="svg_3"/>
  <g id="svg_4"/>
  <g id="svg_5"/>
  <g id="svg_6"/>
  <g id="svg_7"/>
  <g id="svg_8"/>
  <g id="svg_9"/>
  <g id="svg_10"/>
  <g id="svg_11"/>
  <g id="svg_12"/>
  <g id="svg_13"/>
  <g id="svg_14"/>
  <g id="svg_15"/>
 </g>
</svg>